# xmcd
# Track frame offsets:
# 150
# 15578
# 29755
# 45647
# 56889
# 67594
#
# Disc length: 1068 seconds
# Revision: 0
# Processed by: cddbd v1.5.2PL0 Copyright (c) Steve Scherf et al.
# Submitted via: VisiTrax 2.10.2.252 - For more info visit www.synapsa.com
#
DISCID=49042a06
DTITLE=Hurley and The Blue Dots - Hurley and The Blue Dots
DYEAR=2004
DGENRE=Blues
TTITLE0=Mean old Frisco
TTITLE1=Howlin´for my daling
TTITLE2=I can´t be satisfied
TTITLE3=Crazy mixed up world
TTITLE4=Diddy wha diddy
TTITLE5=Ace of spades
EXTD=
EXTT0=
EXTT1=
EXTT2=
EXTT3=
EXTT4=
EXTT5=
PLAYORDER=
